<svg xmlns="http://www.w3.org/2000/svg" viewBox="0 0 96 16"><title>cppexpose-logo</title><polygon points="1.684 14.347 16.341 14.347 15.12 12.231 5.348 12.231 10.232 3.769 9.011 1.653 1.684 14.347" style="fill:#836890"/><path d="M18.78,1.6533l7.321,12.6934,1.2358-2.1155-1.2214-2.1156L29.78,3.7688,28.5581,1.6533Zm8.5563,2.1155-2.4537,4.23-2.4384-4.23Z" style="fill:#836890"/><polygon points="11.455 1.653 16.341 1.653 17.562 3.769 15.119 3.769 17.558 7.999 18.787 5.885 20.009 8 18.79 10.116 20.012 12.231 18.776 14.347 11.455 1.653" style="fill:#836890"/><path d="M32.0462,8.625A3.5332,3.5332,0,0,1,35.3875,4.81c1.9668,0,3.0015,1.42,3.0015,3.4453a3.9588,3.9588,0,0,1-.0738.8282H33.702a2.078,2.078,0,0,0,2.144,2.0253,3.0334,3.0334,0,0,0,1.6855-.5322l.5767,1.0645a4.5759,4.5759,0,0,1-2.4839.7842A3.5008,3.5008,0,0,1,32.0462,8.625ZM36.91,7.93c0-1.124-.4877-1.8037-1.4785-1.8037A1.8234,1.8234,0,0,0,33.6873,7.93Z" style="fill:#836890"/><path d="M41.2718,8.462,39.1131,4.9874h1.8335l.813,1.375c.207.3994.4438.8281.6655,1.2275h.0591c.1772-.3994.3843-.8281.562-1.2275l.6948-1.375H45.5L43.3562,8.6543l2.3067,3.5928H43.8294l-.8867-1.4346c-.2368-.4287-.4883-.872-.7393-1.2861h-.06c-.207.4141-.4287.8428-.6357,1.2861L40.74,12.2471H38.9651Z" style="fill:#836890"/><path d="M46.9485,4.9874h1.4043l.1187.7685h.0591a3.538,3.538,0,0,1,2.188-.9463c1.8042,0,2.854,1.4492,2.854,3.6963,0,2.4844-1.4937,3.919-3.1055,3.919a2.9349,2.9349,0,0,1-1.8628-.7989l.0444,1.2129v2.2764h-1.7Zm4.8643,3.5341c0-1.4492-.4732-2.3066-1.5674-2.3066a2.3189,2.3189,0,0,0-1.5967.8125v3.3867a2.296,2.296,0,0,0,1.4639.6055C51.0735,11.02,51.8128,10.1622,51.8128,8.5215Z" style="fill:#836890"/><path d="M54.8138,8.625a3.47,3.47,0,1,1,6.9048,0,3.4683,3.4683,0,1,1-6.9048,0Zm5.16,0c0-1.4638-.6509-2.4257-1.7153-2.4257s-1.7.9619-1.7,2.4257c0,1.4483.6357,2.4092,1.7,2.4092S59.9739,10.0733,59.9739,8.625Z" style="fill:#836890"/><path d="M62.62,11.419l.7984-1.0938a3.2272,3.2272,0,0,0,2.0107.8125c.7837,0,1.1533-.3691,1.1533-.872,0-.6065-.7837-.8721-1.5522-1.168-.9614-.3545-2.0406-.9023-2.0406-2.1143C62.99,5.712,64.01,4.81,65.636,4.81a3.916,3.916,0,0,1,2.41.8731l-.7837,1.0341a2.7064,2.7064,0,0,0-1.5967-.621c-.7246,0-1.0649.3408-1.0649.7988,0,.5771.7246.7988,1.5083,1.0791.9907.37,2.0849.8428,2.0849,2.2031,0,1.2422-.9907,2.2481-2.8242,2.2481A4.5943,4.5943,0,0,1,62.62,11.419Z" style="fill:#836890"/><path d="M69.2435,8.625A3.5328,3.5328,0,0,1,72.5843,4.81c1.9668,0,3.0019,1.42,3.0019,3.4453a3.9275,3.9275,0,0,1-.0742.8282H70.8987a2.0788,2.0788,0,0,0,2.1446,2.0253,3.0334,3.0334,0,0,0,1.6855-.5322l.5762,1.0645a4.5745,4.5745,0,0,1-2.4834.7842A3.5,3.5,0,0,1,69.2435,8.625ZM74.1077,7.93c0-1.124-.4883-1.8037-1.4785-1.8037A1.824,1.824,0,0,0,70.8841,7.93Z" style="fill:#836890"/></svg>