<?xml version="1.0" encoding="utf-8"?>
<!-- Generator: Adobe Illustrator 21.1.0, SVG Export Plug-In . SVG Version: 6.00 Build 0)  -->
<svg version="1.1" id="Layer_1" xmlns="http://www.w3.org/2000/svg" xmlns:xlink="http://www.w3.org/1999/xlink" x="0px" y="0px"
	 viewBox="0 0 77.215752 17.504883" enable-background="new 0 0 77.215752 17.504883" xml:space="preserve">
<g>
	<g>
		<path fill="#564D89" d="M35.048546,4.833984c1.966797,0,3.001465,1.419922,3.001465,3.445313
			c0,0.325195-0.029297,0.621094-0.07373,0.798828h-4.613281c0.147949,1.31543,0.976074,2.054688,2.144043,2.054688
			c0.621094,0,1.15332-0.192383,1.685547-0.532227l0.57666,1.064453c-0.694824,0.458984-1.567383,0.78418-2.483887,0.78418
			c-2.01123,0-3.578123-1.405273-3.578123-3.799805C31.707239,6.283203,33.348351,4.833984,35.048546,4.833984z M36.571495,7.998047
			c0-1.15332-0.487793-1.847656-1.478516-1.847656c-0.857422,0-1.59668,0.635742-1.744629,1.847656H36.571495z"/>
		<path fill="#564D89" d="M40.932823,8.486328l-2.158691-3.474609h1.833496l0.812988,1.375
			c0.207031,0.399414,0.443848,0.828125,0.665527,1.227539h0.059082c0.177246-0.399414,0.384277-0.828125,0.562012-1.227539
			l0.694824-1.375h1.759277l-2.144043,3.666992l2.306641,3.592773H43.49044l-0.886719-1.43457
			c-0.236816-0.428711-0.488281-0.87207-0.739258-1.286133h-0.05957c-0.207031,0.414063-0.428711,0.842773-0.635742,1.286133
			l-0.768555,1.43457h-1.774414L40.932823,8.486328z"/>
		<path fill="#564D89" d="M48.310265,12.863281v2.276367h-1.700195V5.011719h1.404297l0.118164,0.768555h0.05957
			c0.605957-0.517578,1.389648-0.946289,2.187988-0.946289c1.804199,0,2.854004,1.449219,2.854004,3.696289
			c0,2.484375-1.493652,3.918945-3.105469,3.918945c-0.635742,0-1.271484-0.295898-1.862793-0.798828L48.310265,12.863281z
			 M49.774132,11.043945c0.960938,0,1.700195-0.857422,1.700195-2.498047c0-1.449219-0.473145-2.306641-1.567383-2.306641
			c-0.532227,0-1.034668,0.265625-1.59668,0.8125v3.386719C48.842491,10.881836,49.345421,11.043945,49.774132,11.043945z"/>
		<path fill="#564D89" d="M57.920128,4.833984c1.818848,0,3.459961,1.389648,3.459961,3.81543
			c0,2.40918-1.641113,3.799805-3.459961,3.799805c-1.803711,0-3.444824-1.390625-3.444824-3.799805
			C54.475304,6.223633,56.116417,4.833984,57.920128,4.833984z M57.920128,11.058594c1.064453,0,1.715332-0.960938,1.715332-2.40918
			c0-1.463867-0.650879-2.425781-1.715332-2.425781s-1.700195,0.961914-1.700195,2.425781
			C56.219933,10.097656,56.855675,11.058594,57.920128,11.058594z"/>
		<path fill="#564D89" d="M63.079796,10.349609c0.650391,0.50293,1.271484,0.8125,2.010742,0.8125
			c0.783691,0,1.15332-0.369141,1.15332-0.87207c0-0.606445-0.783691-0.87207-1.552246-1.167969
			c-0.961426-0.354492-2.040527-0.902344-2.040527-2.114258c0-1.271484,1.02002-2.173828,2.646484-2.173828
			c1.005371,0,1.818848,0.414063,2.410156,0.873047l-0.783691,1.03418c-0.502441-0.369141-1.02002-0.621094-1.59668-0.621094
			c-0.724609,0-1.064941,0.34082-1.064941,0.798828c0,0.561523,0.724609,0.798828,1.508301,1.079102
			c0.990723,0.370117,2.084961,0.842773,2.084961,2.203125c0,1.242188-0.990723,2.248047-2.824219,2.248047
			c-0.990723,0-2.040527-0.428711-2.75-1.005859L63.079796,10.349609z"/>
		<path fill="#564D89" d="M72.2463,4.833984c1.966309,0,3.001465,1.419922,3.001465,3.445313
			c0,0.325195-0.029297,0.621094-0.07373,0.798828h-4.613281c0.147949,1.31543,0.976074,2.054688,2.144043,2.054688
			c0.621094,0,1.15332-0.192383,1.685547-0.532227l0.57666,1.064453c-0.694824,0.458984-1.567383,0.78418-2.483887,0.78418
			c-2.01123,0-3.578125-1.405273-3.578125-3.799805C68.904991,6.283203,70.546104,4.833984,72.2463,4.833984z M73.769249,7.998047
			c0-1.15332-0.487793-1.847656-1.478516-1.847656c-0.857422,0-1.59668,0.635742-1.744629,1.847656H73.769249z"/>
	</g>
</g>
<polygon fill="#564D89" points="1.422084,14.371596 16.079704,14.371596 14.858319,12.256021 5.086317,12.256021 9.971027,3.793718 
	8.749641,1.678142 "/>
<path fill="#564D89" d="M18.518991,1.678142l7.321011,12.693454l1.235779-2.115575l-1.221386-2.115576l3.663671-6.346727
	L28.29668,1.678142H18.518991z M27.075256,3.793718l-2.45368,4.230394l-2.43837-4.230394H27.075256z"/>
<polygon fill="#564D89" points="11.193523,1.678142 16.079161,1.678142 17.300547,3.793718 14.857738,3.793718 17.296108,8.024112 
	18.525793,5.909547 19.748053,8.024619 18.528927,10.140445 19.750313,12.256021 18.514534,14.371595 "/>
</svg>
